HIERARCHY
ROOT Hips
{
	OFFSET 0.00000 0.00000 0.00000
	CHANNELS 6 Xposition Yposition Zposition Zrotation Yrotation Xrotation 
	JOINT LHipJoint
	{
		OFFSET 0 0 0
		CHANNELS 3 Zrotation Yrotation Xrotation
		JOINT LeftHip
		{
			OFFSET 1.26600 -1.82114 0.91038
			CHANNELS 3 Zrotation Yrotation Xrotation
			JOINT LeftKnee
			{
				OFFSET 2.50076 -6.87080 0.00000
				CHANNELS 3 Zrotation Yrotation Xrotation
				JOINT LeftAnkle
				{
					OFFSET 2.57364 -7.07102 0.00000
					CHANNELS 3 Zrotation Yrotation Xrotation
					JOINT LeftToe
					{
						OFFSET 0.13572 -0.37290 1.97004
						CHANNELS 3 Zrotation Yrotation Xrotation
						End Site
						{
							OFFSET 0.00000 -0.00000 1.01383
						}
					}
				}
			}
		}
	}
	JOINT RHipJoint
	{
		OFFSET 0 0 0
		CHANNELS 3 Zrotation Yrotation Xrotation
		JOINT RightHip
		{
			OFFSET -1.20803 -1.82114 0.91038
			CHANNELS 3 Zrotation Yrotation Xrotation
			JOINT RightKnee
			{
				OFFSET -2.54916 -7.00377 0.00000
				CHANNELS 3 Zrotation Yrotation Xrotation
				JOINT RightAnkle
				{
					OFFSET -2.56374 -7.04382 0.00000
					CHANNELS 3 Zrotation Yrotation Xrotation
					JOINT RightToe
					{
						OFFSET -0.23520 -0.64621 2.09921
						CHANNELS 3 Zrotation Yrotation Xrotation
						End Site
						{
							OFFSET -0.00000 -0.00000 1.10065
						}
					}
				}
			}
		}
	}
	JOINT lowerback
	{
		OFFSET 0 0 0
		CHANNELS 3 Zrotation Yrotation Xrotation
		JOINT Chest
		{
			OFFSET 0.05492 2.10797 -0.12074
			CHANNELS 3 Zrotation Yrotation Xrotation
			JOINT Chest2
			{
				OFFSET 0.04577 2.11592 -0.04483
				CHANNELS 3 Zrotation Yrotation Xrotation
				JOINT lowerneck
				{
					OFFSET 0 0 0
					CHANNELS 3 Zrotation Yrotation Xrotation
					JOINT Neck
					{
						OFFSET -0.10759 1.80167 0.15770
						CHANNELS 3 Zrotation Yrotation Xrotation
						JOINT Head
						{
							OFFSET 0.09237 1.77509 -0.40848
							CHANNELS 3 Zrotation Yrotation Xrotation
							End Site
							{
								OFFSET 0.03805 1.84093 -0.15754
							}
						}
					}
				}
				JOINT LeftCollar
				{
					OFFSET 0 0 0
					CHANNELS 3 Zrotation Yrotation Xrotation
					JOINT LeftShoulder
					{
						OFFSET 3.42372 1.09575 -0.28209
CHANNELS 3 Zrotation Xrotation Yrotation
						JOINT LeftElbow
						{
OFFSET 0 -4.956810 0.000000
CHANNELS 3 Zrotation Xrotation Yrotation
							JOINT LeftWrist
							{
OFFSET 0 -3.409150 0.000000
CHANNELS 3 Zrotation Xrotation Yrotation
								JOINT lhand
								{
									OFFSET 0 0 0
CHANNELS 3 Zrotation Xrotation Yrotation
									JOINT LFingers
									{
OFFSET 0 -0.616400 0.000000
CHANNELS 3 Zrotation Xrotation Yrotation
										End Site
										{
OFFSET 0 -0.496960 0.000000
										}
									}
								}
								JOINT LThumb
								{
OFFSET 0 0.000000 0.000000
CHANNELS 3 Zrotation Xrotation Yrotation
									End Site
									{
OFFSET 0 -0.504550 0.504550
									}
								}
							}
						}
					}
				}
				JOINT RightCollar
				{
					OFFSET 0 0 0
					CHANNELS 3 Zrotation Yrotation Xrotation
					JOINT RightShoulder
					{
						OFFSET -3.24731 1.15872 -0.32221
CHANNELS 3 Zrotation Xrotation Yrotation
						JOINT RightElbow
						{
OFFSET 0 -5.352000 0.000000
CHANNELS 3 Zrotation Xrotation Yrotation
							JOINT RightWrist
							{
OFFSET 0 -3.437210 -0.000000
CHANNELS 3 Zrotation Xrotation Yrotation
								JOINT rhand
								{
									OFFSET 0 0 0
CHANNELS 3 Zrotation Xrotation Yrotation
									JOINT RFingers
									{
OFFSET 0 -0.720090 0.000000
CHANNELS 3 Zrotation Xrotation Yrotation
										End Site
										{
OFFSET 0 -0.580560 0.000000
										}
									}
								}
								JOINT RThumb
								{
OFFSET 0 0.000000 0.000000
CHANNELS 3 Zrotation Xrotation Yrotation
									End Site
									{
OFFSET 0 -0.589420 0.589420
									}
								}
							}
						}
					}
				}
			}
		}
	}
}
MOTION
Frames: 7
Frame Time: 0.008333333333333333
9.927916 17.764267 -10.476014 -147.337047 -85.492852 143.323644 0.000000 0.000000 0.000000 -18.116341 4.511618 -5.866724 2.253124 9.374251 26.973241 -0.373910 -12.156479 -1.572957 0.701559 5.352775 14.917886 0.000000 0.000000 0.000000 12.006405 -3.452304 -18.321683 -24.147465 -19.581454 102.208583 -0.021416 2.411280 4.609285 -0.054455 -1.486499 4.088795 0.338399 1.768294 6.552698 1.326494 2.294749 3.340019 1.020154 1.103154 -0.270913 -8.310941 2.920810 -11.197459 2.291077 3.714090 42.496022 2.942007 -0.264197 17.224466 0.000000 0.000000 0.000000 2.198877 8.008111 -14.643321 18.798701 -29.166427 4.933034 21.829228 2.819319 -20.159365 0.000000 0.000000 0.000000 -7.125000 0.000000 0.000000 -6.724436 51.435762 1.070396 0.000000 0.000000 0.000000 -4.321657 5.190477 10.633748 -13.975261 -22.699309 -2.818575 -21.360189 -11.187510 -11.426133 0.000000 0.000000 0.000000 7.125000 0.000000 0.000000 4.047276 17.753826 2.626886
9.471248 17.931332 -10.490332 -143.812903 -87.995187 139.497880 0.000000 0.000000 0.000000 -19.366442 5.266754 -2.912065 1.815256 8.470098 24.151275 -0.470197 -12.320201 1.789866 0.162221 2.594847 7.152644 0.000000 0.000000 0.000000 9.206932 -4.503047 -31.441996 -27.143111 -18.729544 111.320060 -0.017585 8.098863 -6.026428 -0.532239 -4.673859 12.980784 -1.552679 0.658149 8.163628 1.451658 0.662459 3.840620 2.312407 0.251556 -0.640290 -8.492708 3.412893 -11.791112 1.040155 5.165409 41.942033 2.643213 0.174448 17.024281 0.000000 0.000000 0.000000 3.013173 6.991622 -18.756505 25.150115 -36.354986 8.379592 21.801046 -2.248386 -18.493802 0.000000 0.000000 0.000000 -7.125000 0.000000 0.000000 -6.274097 49.687933 0.726668 0.000000 0.000000 0.000000 -5.431390 4.247543 14.139350 -15.887435 -25.367027 -3.597996 -21.415993 -13.483015 -11.073841 0.000000 0.000000 0.000000 7.125000 0.000000 0.000000 3.997321 18.124145 2.561774
9.027948 18.037414 -10.544268 -66.422172 -88.869197 62.515456 0.000000 0.000000 0.000000 -19.432063 3.771593 -1.273197 1.736266 8.293366 23.608943 -0.415153 -11.335199 3.846740 0.230266 3.060466 8.449278 0.000000 0.000000 0.000000 9.829297 -3.006721 -44.660997 -26.974249 -18.790900 110.795149 -0.240288 12.989167 -11.927808 -0.060082 -1.518083 4.176738 -1.989659 0.682794 9.531625 1.355404 0.624889 4.031761 2.457081 0.226713 -1.196335 -7.571568 2.795167 -11.960793 0.870479 4.123052 41.328469 2.242554 -0.054829 16.823008 0.000000 0.000000 0.000000 5.817369 5.577270 -23.854164 31.193684 -41.893680 12.199368 21.836435 -2.695550 -18.739894 0.000000 0.000000 0.000000 -7.125000 0.000000 0.000000 -6.306513 49.952154 0.770464 0.000000 0.000000 0.000000 -4.902840 4.053488 14.876289 -18.339640 -28.589553 -4.710838 -22.774588 -16.034192 -10.419151 0.000000 0.000000 0.000000 7.125000 0.000000 0.000000 3.017777 18.709880 1.892335
8.554895 18.080216 -10.638938 -11.337311 -87.380251 7.916521 0.000000 0.000000 0.000000 -19.479549 3.467807 0.003916 1.684991 8.176584 23.251824 -0.480475 -12.187514 5.140614 0.089058 1.924392 5.296745 0.000000 0.000000 0.000000 9.897617 0.418533 -54.008908 -23.739501 -19.659623 100.994017 -0.296640 14.496431 -13.293271 -0.002276 0.304668 -0.837176 -3.570254 0.054676 10.844763 1.878888 -0.399875 4.290614 4.017830 -0.310286 -1.565351 -8.068429 2.886942 -12.307553 0.621168 4.585191 40.983864 2.300119 0.058110 16.698470 0.000000 0.000000 0.000000 7.166118 5.036255 -26.269044 36.109653 -45.587393 15.601111 22.825698 -3.795633 -17.065132 0.000000 0.000000 0.000000 -7.125000 0.000000 0.000000 -4.928899 48.338246 0.406837 0.000000 0.000000 0.000000 -6.385217 2.949195 18.463160 -20.197910 -30.879874 -5.632689 -23.201430 -17.864415 -10.899659 0.000000 0.000000 0.000000 7.125000 0.000000 0.000000 2.734496 18.154965 1.748360
8.040757 18.060171 -10.774625 -5.747777 -85.717622 3.535571 0.000000 0.000000 0.000000 -18.912732 2.656125 0.686803 1.683920 8.174040 23.244005 -0.559019 -13.125647 5.575795 0.060656 1.588464 4.369711 0.000000 0.000000 0.000000 9.713821 4.793606 -58.252191 -18.001476 -19.902240 84.147438 -0.153299 13.917503 -11.507730 -0.063445 1.611624 -4.433976 -4.413387 -0.144163 11.052306 2.175524 -0.759657 4.537180 4.853219 -0.515228 -1.366350 -7.818744 2.660821 -12.197805 0.217695 4.326356 40.681514 2.033021 -0.030352 16.550010 0.000000 0.000000 0.000000 8.329564 4.191046 -26.987862 39.135748 -47.549417 17.798903 22.638677 -2.406930 -18.046002 0.000000 0.000000 0.000000 -7.125000 0.000000 0.000000 -5.343983 49.348763 0.574507 0.000000 0.000000 0.000000 -6.428356 1.420686 18.748298 -20.822366 -31.620421 -5.956568 -22.340001 -16.688198 -10.947097 0.000000 0.000000 0.000000 7.125000 0.000000 0.000000 3.342889 18.180290 2.136716
7.463305 17.994596 -10.933170 -6.162685 -83.871223 4.177249 0.000000 0.000000 0.000000 -17.718458 2.767419 3.205127 1.468177 7.657025 21.677216 -0.606076 -13.672308 6.151996 0.273833 3.357447 9.276333 0.000000 0.000000 0.000000 7.889289 9.383358 -57.075005 -13.210069 -18.856132 69.776184 0.585252 15.308776 -2.267038 -0.012622 0.567420 -1.559919 -4.177886 -0.156751 11.948062 2.180533 -0.815586 5.129612 4.742119 -0.571927 -1.232347 -8.041954 2.239657 -12.297908 0.751032 3.595701 40.530005 2.198047 -0.258940 16.505868 0.000000 0.000000 0.000000 9.830180 3.589281 -27.859969 39.039406 -47.490319 17.727832 22.675182 -3.150215 -17.136168 0.000000 0.000000 0.000000 -7.125000 0.000000 0.000000 -5.089705 48.391122 0.426653 0.000000 0.000000 0.000000 -5.715836 0.146823 18.890474 -21.337912 -32.220616 -6.229199 -21.831675 -17.460923 -11.412370 0.000000 0.000000 0.000000 7.125000 0.000000 0.000000 3.716163 17.727087 2.413489
6.793270 17.878264 -11.098395 -3.508486 -81.137663 2.360043 0.000000 0.000000 0.000000 -16.778482 2.312602 3.973463 1.633437 8.056623 22.886354 -0.856591 -16.206677 4.335137 0.013068 -0.730562 -2.007883 0.000000 0.000000 0.000000 7.485973 10.721625 -55.663353 -11.451929 -18.149237 64.240700 0.496987 12.421549 3.476332 -0.069220 1.075129 -2.960011 -3.679917 -0.458798 11.919323 2.179951 -1.162055 5.306256 4.497238 -0.748368 -1.005508 -8.146148 1.879182 -12.280315 0.827017 3.107046 40.269412 2.174540 -0.424857 16.389505 0.000000 0.000000 0.000000 9.973427 3.961508 -27.589050 36.495069 -45.849534 15.877050 22.325011 -2.646601 -17.454400 0.000000 0.000000 0.000000 -7.125000 0.000000 0.000000 -5.502321 48.674724 0.500552 0.000000 0.000000 0.000000 -5.658557 0.098667 20.341180 -22.181101 -33.180921 -6.684739 -21.822430 -18.306142 -10.987525 0.000000 0.000000 0.000000 7.125000 0.000000 0.000000 3.708619 18.181614 2.371253
